Coordinates
version=1
nRows=29
nColumns=8
inDegrees=no

Units are S.I. units (second, meters, Newtons, ...)
Angles are in radian.

endheader
time	ra_sh_e_f	ra_sh_ad_ab	ra_sh_ext_int	ra_el_e_f	ra_wr_e_f	ra_wr_s_p	ra_wr_ad_ab
      0.51836735	      0.18454853	      0.04597090	     -0.10965123	      0.23501461	      0.23501461	     -0.04893065	      0.33663009
      0.52040816	      0.18454898	      0.04595103	     -0.10949396	      0.23492545	      0.23492545	     -0.04876622	      0.33486065
      0.52244898	      0.18449879	      0.04592894	     -0.10949978	      0.23493978	      0.23493978	     -0.04879453	      0.33512187
      0.52448980	      0.18448759	      0.04596227	     -0.10968439	      0.23490887	      0.23490887	     -0.04886179	      0.33575948
      0.52653061	      0.18435586	      0.04594079	     -0.10954907	      0.23486675	      0.23486675	     -0.04884733	      0.33539654
      0.52857143	      0.18443113	      0.04588999	     -0.10949530	      0.23483941	      0.23483941	     -0.04884593	      0.33469665
      0.53061224	      0.18437064	      0.04592914	     -0.10962479	      0.23491648	      0.23491648	     -0.04888849	      0.33549557
      0.53265306	      0.18433345	      0.04591509	     -0.10965750	      0.23489318	      0.23489318	     -0.04893206	      0.33414149
      0.53469388	      0.18427520	      0.04594079	     -0.10984973	      0.23498862	      0.23498862	     -0.04908344	      0.33609285
      0.53673469	      0.18425504	      0.04591609	     -0.10970814	      0.23501013	      0.23501013	     -0.04901237	      0.33554575
      0.53877551	      0.18420172	      0.04591268	     -0.10975742	      0.23493261	      0.23493261	     -0.04905874	      0.33616006
      0.54081633	      0.18411927	      0.04597150	     -0.10990126	      0.23498190	      0.23498190	     -0.04902341	      0.33601668
      0.54285714	      0.18402383	      0.04597452	     -0.10986541	      0.23488467	      0.23488467	     -0.04904549	      0.33591676
      0.54489796	      0.18415064	      0.04587754	     -0.10968349	      0.23491200	      0.23491200	     -0.04902180	      0.33490097
      0.54693878	      0.18404713	      0.04596327	     -0.10993441	      0.23513470	      0.23513470	     -0.04906035	      0.33568869
      0.54897959	      0.18406237	      0.04589320	     -0.10974802	      0.23502940	      0.23502940	     -0.04900353	      0.33514114
      0.55102041	      0.18398396	      0.04594279	     -0.11002806	      0.23516427	      0.23516427	     -0.04920330	      0.33637962
      0.55306122	      0.18397365	      0.04589340	     -0.10975877	      0.23509437	      0.23509437	     -0.04903706	      0.33486513
      0.55510204	      0.18383071	      0.04593657	     -0.10983987	      0.23509661	      0.23509661	     -0.04906958	      0.33566942
      0.55714286	      0.18381279	      0.04595223	     -0.10993262	      0.23501416	      0.23501416	     -0.04909548	      0.33537100
      0.55918367	      0.18374110	      0.04596006	     -0.10990529	      0.23500610	      0.23500610	     -0.04908223	      0.33558473
      0.56122449	      0.18381324	      0.04590645	     -0.10977535	      0.23508675	      0.23508675	     -0.04900895	      0.33508872
      0.56326531	      0.18376081	      0.04594360	     -0.10987616	      0.23509975	      0.23509975	     -0.04904328	      0.33578995
      0.56530612	      0.18375678	      0.04591609	     -0.10981657	      0.23499176	      0.23499176	     -0.04902562	      0.33482256
      0.56734694	      0.18363356	      0.04594842	     -0.10990843	      0.23503119	      0.23503119	     -0.04908826	      0.33530917
      0.56938776	      0.18369540	      0.04587493	     -0.10969962	      0.23503970	      0.23503970	     -0.04900554	      0.33456402
      0.57142857	      0.18367299	      0.04583980	     -0.10959836	      0.23495771	      0.23495771	     -0.04904569	      0.33477999
      0.57346939	      0.18354708	      0.04594159	     -0.10986855	      0.23515755	      0.23515755	     -0.04907842	      0.33577427
      0.57551020	      0.18349197	      0.04590686	     -0.10967901	      0.23510109	      0.23510109	     -0.04902843	      0.33567435
